TITLE ""
FILE "Step2_Track19.mp3" MP3
  TRACK 01 AUDIO
    TITLE "Step2_Track19_01"
    INDEX 01 00:00:00
  TRACK 02 AUDIO
    TITLE "Step2_Track19_02"
    INDEX 01 00:00:22
  TRACK 03 AUDIO
    TITLE "Step2_Track19_03"
    INDEX 01 00:01:72
  TRACK 04 AUDIO
    TITLE "Step2_Track19_04"
    INDEX 01 00:02:56
  TRACK 05 AUDIO
    TITLE "Step2_Track19_05"
    INDEX 01 00:03:50
  TRACK 06 AUDIO
    TITLE "Step2_Track19_06"
    INDEX 01 00:03:58
  TRACK 07 AUDIO
    TITLE "Step2_Track19_07"
    INDEX 01 00:06:17
  TRACK 08 AUDIO
    TITLE "Step2_Track19_08"
    INDEX 01 00:06:34
  TRACK 09 AUDIO
    TITLE "Step2_Track19_09"
    INDEX 01 00:07:34
  TRACK 10 AUDIO
    TITLE "Step2_Track19_10"
    INDEX 01 00:07:40
  TRACK 11 AUDIO
    TITLE "Step2_Track19_11"
    INDEX 01 00:09:33
  TRACK 12 AUDIO
    TITLE "Step2_Track19_12"
    INDEX 01 00:09:66
  TRACK 13 AUDIO
    TITLE "Step2_Track19_13"
    INDEX 01 00:10:64
  TRACK 14 AUDIO
    TITLE "Step2_Track19_14"
    INDEX 01 00:10:67
  TRACK 15 AUDIO
    TITLE "Step2_Track19_15"
    INDEX 01 00:13:64
  TRACK 16 AUDIO
    TITLE "Step2_Track19_16"
    INDEX 01 00:14:07
  TRACK 17 AUDIO
    TITLE "Step2_Track19_17"
    INDEX 01 00:15:08
  TRACK 18 AUDIO
    TITLE "Step2_Track19_18"
    INDEX 01 00:15:10
  TRACK 19 AUDIO
    TITLE "Step2_Track19_19"
    INDEX 01 00:17:19
  TRACK 20 AUDIO
    TITLE "Step2_Track19_20"
    INDEX 01 00:17:44
  TRACK 21 AUDIO
    TITLE "Step2_Track19_21"
    INDEX 01 00:18:36
  TRACK 22 AUDIO
    TITLE "Step2_Track19_22"
    INDEX 01 00:18:45
  TRACK 23 AUDIO
    TITLE "Step2_Track19_23"
    INDEX 01 00:21:61
  TRACK 24 AUDIO
    TITLE "Step2_Track19_24"
    INDEX 01 00:22:10
  TRACK 25 AUDIO
    TITLE "Step2_Track19_25"
    INDEX 01 00:23:11
  TRACK 26 AUDIO
    TITLE "Step2_Track19_26"
    INDEX 01 00:23:13
  TRACK 27 AUDIO
    TITLE "Step2_Track19_27"
    INDEX 01 00:26:04
  TRACK 28 AUDIO
    TITLE "Step2_Track19_28"
    INDEX 01 00:26:18
  TRACK 29 AUDIO
    TITLE "Step2_Track19_29"
    INDEX 01 00:27:19
  TRACK 30 AUDIO
    TITLE "Step2_Track19_30"
    INDEX 01 00:27:27
  TRACK 31 AUDIO
    TITLE "Step2_Track19_31"
    INDEX 01 00:30:51
  TRACK 32 AUDIO
    TITLE "Step2_Track19_32"
    INDEX 01 00:31:05
  TRACK 33 AUDIO
    TITLE "Step2_Track19_33"
    INDEX 01 00:31:70
  TRACK 34 AUDIO
    TITLE "Step2_Track19_34"
    INDEX 01 00:32:06
  TRACK 35 AUDIO
    TITLE "Step2_Track19_35"
    INDEX 01 00:34:35
  TRACK 36 AUDIO
    TITLE "Step2_Track19_36"
    INDEX 01 00:34:62
  TRACK 37 AUDIO
    TITLE "Step2_Track19_37"
    INDEX 01 00:35:64
  TRACK 38 AUDIO
    TITLE "Step2_Track19_38"
    INDEX 01 00:36:04
  TRACK 39 AUDIO
    TITLE "Step2_Track19_39"
    INDEX 01 00:39:36
  TRACK 40 AUDIO
    TITLE "Step2_Track19_40"
    INDEX 01 00:39:55
  TRACK 41 AUDIO
    TITLE "Step2_Track19_41"
    INDEX 01 00:40:49
  TRACK 42 AUDIO
    TITLE "Step2_Track19_42"
    INDEX 01 00:40:55
  TRACK 43 AUDIO
    TITLE "Step2_Track19_43"
    INDEX 01 00:43:28
